<?xml version="1.0" standalone="no"?>
<!DOCTYPE svg PUBLIC "-//W3C//DTD SVG 20010904//EN"
 "http://www.w3.org/TR/2001/REC-SVG-20010904/DTD/svg10.dtd">
<svg version="1.0" xmlns="http://www.w3.org/2000/svg"
 width="555.000000pt" height="554.000000pt" viewBox="0 0 555.000000 554.000000"
 preserveAspectRatio="xMidYMid meet">

<g transform="translate(0.000000,554.000000) scale(0.100000,-0.100000)"
fill="#000000" stroke="none">
<path d="M3024 4981 c4 -6 18 -11 32 -11 13 0 24 -4 24 -10 0 -5 -16 -10 -35
-10 -26 0 -35 4 -35 17 0 15 -14 15 -147 10 -82 -4 -176 -11 -211 -17 -58 -10
-147 -39 -140 -46 2 -1 37 4 78 12 41 8 100 14 130 14 30 0 71 4 90 9 19 5 64
12 100 15 58 5 63 4 46 -9 -23 -17 -17 -19 18 -6 15 6 26 6 28 1 2 -5 41 -12
88 -16 55 -4 122 -18 188 -40 56 -19 108 -34 115 -34 14 1 -21 23 -41 26 -31
5 -41 14 -35 30 5 14 1 16 -28 11 -25 -5 -48 0 -84 17 -28 12 -68 26 -90 30
-22 4 -53 9 -69 12 -19 4 -26 3 -22 -5z"/>
<path d="M2408 4913 c7 -3 16 -2 19 1 4 3 -2 6 -13 5 -11 0 -14 -3 -6 -6z"/>
<path d="M2310 4890 c-30 -10 -50 -18 -45 -19 6 0 37 8 70 18 33 11 53 19 45
19 -8 1 -40 -7 -70 -18z"/>
<path d="M2455 4900 c-13 -5 -14 -9 -5 -9 8 0 24 4 35 9 13 5 14 9 5 9 -8 0
-24 -4 -35 -9z"/>
<path d="M2375 4880 c-25 -11 1 -11 35 0 20 6 21 8 5 8 -11 0 -29 -3 -40 -8z"/>
<path d="M2192 4843 c-28 -14 -50 -28 -48 -30 5 -5 106 45 106 52 0 7 1 7 -58
-22z"/>
<path d="M2774 4821 c-51 -32 -114 -95 -114 -112 0 -3 17 -6 38 -6 l37 -1 -29
12 -28 11 40 37 c22 19 60 48 86 63 25 15 46 29 46 31 0 10 -19 1 -76 -35z"/>
<path d="M2270 4835 c-14 -8 -20 -14 -15 -14 6 0 21 6 35 14 14 8 21 14 15 14
-5 0 -21 -6 -35 -14z"/>
<path d="M3435 4840 c3 -4 14 -10 25 -13 11 -3 18 -2 15 3 -3 4 -14 10 -25 13
-11 3 -18 2 -15 -3z"/>
<path d="M2180 4785 c-14 -8 -20 -14 -15 -14 6 0 21 6 35 14 14 8 21 14 15 14
-5 0 -21 -6 -35 -14z"/>
<path d="M3540 4750 c14 -11 34 -23 45 -26 73 -24 238 -169 304 -268 58 -85
111 -188 111 -214 0 -11 7 -36 15 -56 21 -49 65 -233 66 -276 l2 -35 6 35 c6
31 8 28 15 -35 5 -38 8 -131 8 -205 -1 -100 1 -130 9 -117 6 10 9 34 7 53 -3
23 0 34 9 34 17 0 29 -27 36 -78 3 -24 13 -52 22 -62 19 -21 14 -45 -16 -84
-17 -21 -24 -24 -45 -16 -60 23 -150 6 -183 -34 -15 -18 -1 -22 15 -6 13 13
44 3 44 -14 0 -6 4 -4 10 4 5 9 5 19 -2 27 -17 20 -1 15 26 -8 27 -23 56 -85
57 -122 0 -12 7 -40 14 -62 l14 -40 -6 55 c-5 49 -17 99 -38 153 -6 14 -2 17
22 17 34 0 66 -31 129 -127 52 -80 70 -155 55 -236 -21 -114 -92 -223 -177
-273 l-44 -26 -38 33 c-30 27 -38 30 -40 16 -2 -10 -13 -17 -27 -17 -35 0 -39
17 -8 28 l28 9 -40 11 c-85 24 -116 72 -46 72 39 0 109 31 171 78 44 33 50 41
49 72 l0 25 -10 -25 c-14 -35 -46 -66 -91 -90 -54 -28 -64 -25 -34 11 33 39
25 53 -21 34 -52 -22 -57 -19 -33 20 32 52 18 42 -28 -20 -45 -60 -43 -63 18
-39 53 21 61 12 15 -16 -24 -15 -47 -21 -70 -18 -36 4 -47 -7 -39 -39 6 -20 3
-32 -50 -228 -19 -71 -35 -153 -36 -181 0 -50 0 -51 39 -62 21 -7 45 -12 53
-12 9 0 18 -9 21 -20 3 -11 12 -20 20 -20 15 0 26 -107 28 -295 1 -68 4 -90 9
-70 7 26 8 23 9 -22 0 -28 4 -60 7 -70 5 -14 4 -15 -4 -3 -8 10 -11 3 -14 -30
l-3 -45 -17 30 c-25 44 -22 15 6 -46 13 -30 26 -74 29 -99 12 -106 23 -118 77
-89 19 10 31 18 27 19 -5 0 1 15 13 34 12 21 19 44 16 58 -3 13 -8 46 -11 73
-7 58 -61 343 -75 395 -5 19 -11 69 -14 110 -3 41 -12 140 -20 220 -16 171
-13 207 20 222 28 13 42 5 26 -14 -7 -10 -5 -31 8 -78 10 -36 19 -56 20 -45 4
45 28 -42 29 -100 0 -34 18 -166 40 -295 22 -129 49 -334 61 -455 19 -191 24
-222 41 -234 23 -16 26 -46 4 -37 -24 9 0 -30 32 -51 62 -43 156 -150 148
-171 -2 -7 15 -48 39 -90 48 -84 78 -175 96 -294 14 -87 4 -169 -29 -240 l-19
-43 -1 96 c-1 53 -8 135 -16 182 -14 83 -73 263 -82 254 -2 -3 11 -63 30 -134
19 -70 38 -148 41 -173 l7 -45 -21 33 c-11 17 -24 32 -30 32 -14 0 -12 -11 5
-34 20 -26 19 -126 0 -190 -16 -53 -55 -125 -78 -144 -17 -14 -17 -12 -66 136
-36 109 -36 108 -15 173 22 67 14 247 -15 335 -26 80 -75 189 -90 198 -16 11
-14 -4 14 -72 14 -34 25 -79 25 -99 0 -57 -22 -203 -31 -203 -9 0 -62 145 -84
231 -21 81 -48 132 -79 153 -14 9 -35 35 -47 58 -11 22 -61 83 -111 134 l-90
93 -24 118 c-13 65 -23 125 -23 133 0 21 23 -40 49 -131 22 -76 71 -169 90
-169 14 0 12 17 -4 43 -23 36 -63 198 -96 397 -29 172 -41 221 -40 174 1 -10
7 -59 15 -109 9 -49 20 -118 25 -153 5 -34 14 -81 20 -105 5 -23 9 -51 9 -62
-1 -28 -56 139 -64 194 -11 75 -16 91 -32 91 -12 0 -14 11 -10 60 5 50 3 60
-10 60 -14 0 -15 -12 -9 -92 4 -51 10 -131 13 -177 5 -62 3 -82 -5 -77 -9 5
-9 0 -2 -19 13 -33 13 -58 1 -50 -5 3 -15 31 -21 63 -7 31 -17 80 -23 107 -29
136 -31 207 -7 325 12 58 25 146 30 195 11 112 20 147 29 123 6 -17 7 -16 19
2 10 17 10 20 -2 20 -12 0 -13 7 -5 32 5 18 9 44 8 58 0 25 0 25 -10 3 -18
-44 -30 -68 -25 -50 7 23 -3 47 -20 47 -10 0 -13 -15 -11 -60 1 -33 -1 -60 -5
-60 -13 0 -21 50 -16 102 8 75 -8 36 -22 -57 -7 -44 -16 -87 -20 -95 -4 -8
-11 -40 -14 -70 -10 -80 9 -42 24 50 7 41 16 79 20 83 12 13 12 -214 0 -306
-6 -47 -17 -101 -25 -121 -8 -19 -15 -46 -15 -58 0 -33 -57 -211 -93 -293 -35
-76 -118 -218 -124 -211 -2 2 14 59 36 127 56 171 103 358 71 284 -8 -18 -9
-18 -10 5 -1 14 -12 -13 -25 -60 -25 -93 -70 -211 -110 -289 -14 -28 -25 -54
-24 -57 0 -4 -3 -10 -8 -13 -4 -3 -26 -35 -48 -71 -57 -95 -97 -145 -127 -164
-38 -24 -41 -20 -17 25 11 23 15 38 9 34 -7 -4 -27 -39 -46 -78 -18 -39 -51
-89 -71 -110 -32 -33 -34 -38 -15 -32 l23 7 -17 -39 c-95 -220 -138 -464 -99
-573 8 -23 15 -46 15 -51 0 -18 -62 16 -90 49 -22 27 -33 33 -41 25 -8 -8 -8
-17 0 -32 15 -27 0 -27 -25 0 -16 17 -16 22 -4 29 8 6 19 10 24 10 5 0 6 3 3
7 -4 3 1 11 10 18 9 7 13 17 9 24 -6 9 -16 7 -41 -8 -18 -11 -36 -17 -39 -14
-3 4 -6 44 -6 90 0 59 3 82 12 80 7 -1 15 16 19 43 12 71 57 183 106 262 13
21 23 46 23 57 0 19 26 82 90 216 21 44 41 91 44 105 l6 25 -12 -25 c-20 -42
-47 -98 -67 -137 -10 -21 -31 -65 -46 -98 -15 -33 -58 -124 -95 -201 -78 -160
-100 -232 -101 -330 -1 -89 -17 -56 -18 36 -1 149 58 311 234 640 25 47 43 91
40 98 -3 7 -1 11 3 8 10 -6 24 4 39 29 68 111 125 222 130 253 3 20 14 55 23
77 27 62 71 225 65 235 -7 12 12 87 24 95 5 3 7 -5 5 -17 -4 -21 -4 -21 6 1 6
14 8 31 5 38 -2 8 -1 12 4 9 5 -3 12 9 16 27 6 26 9 28 13 12 3 -11 15 29 27
90 14 66 20 116 15 125 -8 13 -9 13 -14 0 -2 -8 -7 -36 -11 -62 -8 -62 -26
-62 -20 0 4 40 3 38 -9 -16 -7 -35 -23 -75 -34 -90 -43 -54 -49 -77 -57 -227
-3 -63 -12 -103 -44 -186 -22 -59 -51 -127 -65 -152 -14 -25 -26 -53 -26 -61
0 -9 -4 -16 -10 -16 -5 0 -10 -11 -10 -25 0 -14 -11 -43 -25 -65 -14 -22 -25
-44 -25 -50 0 -15 -18 -12 -22 4 -2 10 -20 -1 -57 -35 -30 -27 -56 -47 -58
-45 -3 3 -18 -11 -35 -30 -28 -32 -68 -46 -68 -24 0 22 -82 98 -132 122 -79
39 -132 44 -203 20 -33 -11 -61 -20 -62 -18 -1 1 8 24 21 51 23 50 75 120 83
112 2 -3 34 6 71 18 l67 22 3 51 c3 51 4 51 40 57 64 11 99 25 159 64 56 36
163 145 163 167 0 6 27 23 61 39 33 16 56 31 51 33 -6 2 -34 -9 -64 -23 -29
-14 -89 -36 -133 -50 -44 -13 -125 -39 -180 -58 -129 -45 -165 -52 -210 -37
-20 6 -104 67 -186 133 -83 67 -172 138 -198 157 -153 112 -207 204 -231 385
-5 33 -11 68 -15 78 -6 15 -4 16 20 7 15 -6 33 -7 42 -1 12 6 7 10 -20 15 -22
4 -46 18 -61 36 -29 35 -40 38 -31 10 11 -35 -21 -23 -59 22 -20 23 -36 46
-36 52 0 6 -9 22 -20 36 -16 21 -20 22 -20 7 0 -10 6 -30 14 -45 7 -15 17 -38
21 -52 7 -22 6 -23 -8 -12 -20 17 -65 112 -89 192 -11 36 -25 74 -31 85 -11
19 -12 162 -2 250 4 38 4 38 -10 -10 -9 -33 -15 -112 -17 -235 -3 -191 9 -358
23 -310 4 14 8 21 8 15 1 -5 10 -21 21 -35 11 -14 18 -17 14 -8 -3 9 0 26 6
38 11 20 12 20 42 -22 17 -24 39 -51 50 -61 10 -10 16 -22 13 -26 -2 -5 -7
-26 -10 -47 -3 -22 -12 -73 -20 -114 -8 -41 -14 -84 -14 -95 1 -24 -24 -122
-45 -184 -17 -47 -21 -81 -8 -65 9 10 68 191 78 239 4 23 3 26 -5 15 -7 -9
-11 -10 -11 -3 0 6 8 18 18 25 10 7 24 39 31 73 7 33 22 72 32 87 11 14 19 31
19 37 0 16 8 14 31 -8 20 -19 21 -21 5 -88 -15 -66 -44 -156 -70 -218 -7 -16
-28 -70 -46 -120 -17 -49 -59 -139 -91 -199 -64 -116 -77 -157 -17 -53 110
191 149 267 143 278 -8 11 42 97 75 129 14 14 33 36 42 50 l16 25 13 -27 c15
-34 4 -77 -47 -181 -36 -74 -44 -108 -21 -89 6 6 32 54 57 106 41 88 60 114
60 85 0 -40 -232 -405 -250 -394 -5 3 -50 -53 -100 -125 -90 -130 -111 -158
-140 -188 -14 -14 -15 -14 -18 2 -2 9 2 24 9 32 6 8 10 17 7 19 -13 13 -171
-332 -188 -411 -41 -182 -50 -378 -21 -461 16 -47 16 -53 1 -72 -15 -21 -16
-21 -62 26 -50 53 -72 88 -63 103 4 6 0 16 -8 24 -8 8 -17 46 -20 89 -6 67 -4
82 19 132 29 68 27 98 -4 40 -26 -49 -26 -43 -6 70 20 110 41 153 139 284 42
57 73 106 70 109 -6 7 -38 -27 -77 -80 -9 -13 -17 -18 -18 -13 0 6 29 44 65
85 79 90 145 186 145 209 -1 9 -10 -2 -22 -24 -41 -79 -231 -246 -339 -298
-82 -40 -82 -33 2 24 91 63 203 181 259 274 23 38 43 74 45 80 6 27 18 44 28
38 5 -3 7 -1 3 5 -6 9 30 82 41 82 2 0 1 -6 -3 -12 -4 -7 0 -6 8 2 14 14 68
165 68 190 0 23 -18 8 -25 -22 -7 -31 -8 -31 -12 -9 -4 21 -11 12 -47 -55 -23
-43 -71 -125 -106 -182 -47 -76 -64 -113 -66 -142 -2 -57 -40 -107 -149 -194
-56 -45 -82 -60 -208 -115 -27 -11 -46 -24 -43 -29 8 -13 116 4 176 28 51 20
121 63 167 104 43 37 32 9 -18 -47 -28 -31 -48 -61 -44 -67 3 -5 -13 -53 -36
-107 -54 -128 -96 -251 -115 -338 -19 -86 -12 -234 13 -276 10 -16 14 -31 10
-35 -9 -9 -45 23 -52 47 -4 10 -11 18 -18 16 -30 -6 -57 162 -37 233 7 25 14
56 16 69 5 43 55 155 98 221 53 81 59 90 52 90 -3 0 -23 -26 -43 -57 -21 -32
-41 -60 -44 -63 -11 -8 -56 -110 -70 -157 -14 -50 -29 -53 -64 -16 -24 27 -25
27 -25 6 0 -13 12 -31 29 -44 29 -21 30 -24 28 -108 -1 -93 11 -144 49 -201
29 -42 30 -65 5 -152 -22 -78 -62 -140 -126 -196 -72 -63 -54 -83 33 -37 26
13 62 38 81 55 l34 31 27 -26 c34 -33 54 -33 47 1 -3 18 -1 24 9 20 7 -3 18 2
24 10 7 8 9 14 4 14 -5 0 -2 6 7 13 19 14 89 147 89 169 0 16 37 54 45 47 2
-3 -2 -16 -9 -29 -8 -14 -35 -65 -61 -115 -26 -49 -54 -97 -61 -106 -8 -9 -52
-91 -98 -183 -46 -92 -92 -174 -103 -181 -15 -12 34 -14 359 -15 l377 0 18 23
c10 13 41 50 70 83 28 32 84 97 124 144 40 47 77 90 83 96 16 17 96 -5 96 -28
0 -10 -4 -18 -9 -18 -12 0 -103 -95 -141 -147 -31 -43 -50 -103 -32 -103 5 0
15 14 21 30 5 17 14 30 19 30 5 0 20 15 33 34 20 30 24 32 38 19 13 -14 19
-11 48 21 33 36 33 36 27 9 -4 -16 -11 -31 -17 -34 -6 -4 -5 -9 1 -13 7 -4 6
-25 -4 -64 -7 -31 -13 -63 -14 -69 0 -10 30 -13 119 -13 l119 0 10 63 c6 34
14 83 18 109 3 27 10 48 15 48 5 0 9 7 9 15 0 21 27 19 39 -2 6 -10 11 -16 11
-13 8 36 7 47 -7 58 -16 11 -16 12 0 12 10 0 20 -13 26 -35 5 -18 33 -84 63
-144 l53 -111 1039 0 c984 0 1038 1 1033 17 -2 10 -14 52 -25 93 -12 41 -36
125 -55 187 -34 112 -34 112 -14 130 27 24 74 129 91 204 8 34 18 64 22 68 11
10 -3 -191 -17 -237 -9 -30 -21 -48 -41 -58 -38 -20 -35 -34 6 -34 28 0 38 6
59 39 14 21 33 63 42 92 9 30 30 95 46 144 38 119 51 213 39 295 -12 80 -12
100 -2 100 11 0 73 -85 106 -145 15 -27 32 -54 37 -60 5 -5 9 -41 9 -80 -1
-152 -37 -286 -81 -300 -11 -4 -17 -10 -14 -15 7 -11 175 47 199 68 23 21 44
61 62 121 24 81 14 88 -21 15 -35 -72 -87 -129 -144 -158 l-30 -16 17 38 c24
53 24 392 0 507 -34 164 -111 351 -203 495 -23 36 -49 78 -59 93 -10 16 -20
26 -23 23 -3 -3 17 -43 45 -88 70 -115 145 -269 175 -360 30 -88 42 -148 32
-148 -7 0 -65 38 -75 50 -3 3 -14 10 -25 16 -11 6 -31 27 -44 47 -13 20 -32
37 -42 37 -21 0 -91 81 -147 170 -38 61 -43 77 -62 205 -26 166 -77 424 -126
625 -74 305 -70 285 -54 275 6 -3 10 -16 10 -29 0 -29 57 -116 76 -116 8 0 14
11 15 28 0 24 1 25 9 7 32 -77 54 -142 52 -154 -2 -7 1 -10 7 -6 12 6 58 -87
113 -224 16 -42 35 -85 41 -96 19 -31 60 -135 55 -140 -2 -3 -26 40 -52 95
-27 55 -50 100 -52 100 -5 0 10 -35 51 -122 14 -32 23 -62 20 -68 -8 -13 25
-67 83 -140 25 -30 50 -66 56 -80 6 -14 16 -28 23 -33 17 -11 144 -183 176
-239 98 -170 147 -308 163 -454 8 -76 -15 -169 -56 -231 -29 -43 -25 -47 14
-14 18 15 18 15 6 -9 -7 -14 -23 -39 -36 -57 -28 -36 -30 -45 -10 -37 8 3 30
30 50 60 48 72 67 158 66 298 -1 140 -2 136 16 106 l15 -25 -7 25 c-19 72
-138 329 -176 378 -61 82 -117 143 -155 171 -18 13 -33 30 -33 38 0 7 -16 31
-36 53 -55 60 -179 347 -279 642 -45 131 -81 275 -72 284 9 9 75 -81 97 -130
11 -27 23 -76 27 -108 6 -62 23 -90 23 -39 0 16 5 53 11 80 23 109 -51 253
-169 327 -2 2 11 16 28 31 27 24 33 38 38 84 3 33 16 74 33 104 19 34 32 77
40 135 10 74 10 93 -5 145 -9 33 -21 82 -26 108 -11 58 -38 105 -86 147 -32
28 -35 34 -26 59 16 47 0 142 -31 182 -18 24 -27 49 -28 75 0 21 -5 62 -9 89
-8 46 -8 44 -7 -28 2 -72 -6 -92 -24 -56 -4 8 -14 82 -23 164 -9 83 -19 164
-22 180 -4 17 -3 27 1 23 4 -4 20 -58 36 -120 18 -71 27 -94 23 -63 -7 63 -46
211 -80 301 -35 96 -202 392 -226 402 -5 2 -8 10 -8 17 0 8 -4 17 -10 20 -6 4
-7 -1 -3 -12 5 -14 -1 -12 -23 8 -51 46 -137 105 -206 143 -74 40 -96 46 -58
16z m676 -1220 c5 -33 5 -34 -10 -16 -9 11 -16 31 -16 45 0 35 18 14 26 -29z
m4 -119 c-6 -12 -18 -21 -26 -21 -12 0 -11 6 7 32 24 33 38 24 19 -11z m-120
-27 c0 -2 -7 -4 -15 -4 -8 0 -15 4 -15 10 0 5 7 7 15 4 8 -4 15 -8 15 -10z
m172 -69 c31 -35 19 -34 -17 2 -19 19 -35 37 -35 40 0 7 31 -18 52 -42z m-32
-2 c0 -7 4 -13 8 -13 18 0 73 -87 88 -139 32 -108 13 -248 -45 -330 -22 -30
-28 -57 -11 -46 6 3 10 -1 10 -10 0 -9 -6 -15 -13 -13 -17 4 -97 -54 -97 -70
0 -18 36 -7 78 25 l32 24 0 -26 c0 -38 -26 -82 -52 -88 -34 -9 -93 12 -123 43
l-26 28 38 23 c45 28 63 47 104 112 17 26 34 47 39 47 20 0 45 97 45 175 -1
91 -28 163 -90 239 -19 23 -32 46 -29 49 9 9 44 -16 44 -30z m115 -432 c-17
-52 -45 -88 -45 -58 0 9 4 18 10 22 5 3 17 31 27 62 10 32 19 49 21 40 2 -10
-4 -39 -13 -66z m-470 -131 c3 -5 1 -10 -4 -10 -6 0 -11 5 -11 10 0 6 2 10 4
10 3 0 8 -4 11 -10z m-2220 -20 c3 -5 17 -10 30 -10 20 0 25 -6 30 -37 4 -21
9 -46 12 -55 7 -29 -10 -21 -55 25 -24 24 -42 52 -42 65 0 23 14 30 25 12z
m-51 -25 c18 -27 20 -35 8 -35 -4 0 -16 14 -25 30 -22 36 -6 41 17 5z m30
-112 c-7 -37 -14 -42 -14 -11 0 21 7 38 16 38 1 0 0 -12 -2 -27z m2576 -40 c0
-19 -17 -16 -24 5 -3 9 -9 24 -12 32 -5 10 0 9 15 -4 11 -11 21 -25 21 -33z
m80 -45 c52 -54 76 -100 85 -163 l7 -50 -36 70 c-20 38 -54 88 -76 110 -37 38
-52 75 -31 75 5 0 28 -19 51 -42z m-65 -63 c3 -26 20 -91 36 -147 17 -55 28
-102 26 -104 -14 -14 -87 218 -87 276 0 45 16 28 25 -25z m-658 -72 c-2 -21
-4 -4 -4 37 0 41 2 58 4 38 2 -21 2 -55 0 -75z m613 67 c0 -5 -4 -10 -10 -10
-5 0 -10 5 -10 10 0 6 5 10 10 10 6 0 10 -4 10 -10z m-338 -52 c-6 -6 -17 -6
-31 1 -32 18 -25 31 10 19 20 -7 27 -14 21 -20z m328 -34 c0 -14 -3 -14 -15
-4 -8 7 -15 14 -15 16 0 2 7 4 15 4 8 0 15 -7 15 -16z m-1009 -141 c-12 -20
-14 -14 -5 12 4 9 9 14 11 11 3 -2 0 -13 -6 -23z m-1169 -19 c4 -3 0 -21 -8
-40 -8 -18 -19 -57 -25 -85 -6 -28 -13 -48 -16 -45 -9 9 19 156 29 156 5 0 6
5 3 10 -7 11 8 14 17 4z m306 -377 c141 -3 134 -5 115 41 -3 7 3 12 15 12 36
0 46 -74 11 -83 -11 -3 -75 -1 -141 4 -66 5 -124 6 -129 3 -14 -9 0 -24 16
-17 8 3 15 0 15 -7 0 -14 -66 -8 -82 8 -9 9 -135 -9 -156 -22 -5 -3 -37 1 -73
9 -75 16 -94 8 -133 -54 -18 -28 -50 -53 -123 -94 -107 -61 -143 -89 -143
-114 0 -9 -3 -13 -6 -10 -4 3 -14 -4 -24 -16 -18 -23 -122 -233 -126 -253 -2
-13 -14 -42 -81 -189 -28 -60 -53 -121 -56 -135 -8 -31 -33 -67 -42 -58 -4 3
2 24 14 45 38 73 89 188 114 258 14 39 37 96 51 127 14 32 23 65 19 74 -5 13
-3 15 7 9 10 -6 12 -4 7 9 -4 10 -3 15 3 11 6 -3 10 0 10 9 0 8 3 16 8 18 4 2
29 36 56 76 49 72 83 100 201 167 50 29 84 60 118 110 26 37 55 45 111 32 35
-8 70 -7 139 2 146 21 136 10 132 148 l-4 118 12 -118 12 -117 133 -3z m-521
91 c-2 -18 -4 -4 -4 32 0 36 2 50 4 33 2 -18 2 -48 0 -65z m2221 -103 l0 -40
-8 40 c-4 22 -10 69 -13 105 l-5 65 13 -65 c8 -36 14 -83 13 -105z m-1298 100
c-7 -8 -17 -15 -22 -15 -6 0 -5 7 2 15 7 8 17 15 22 15 6 0 5 -7 -2 -15z
m1217 -77 c-3 -8 -6 -5 -6 6 -1 11 2 17 5 13 3 -3 4 -12 1 -19z m250 -80 c-3
-7 -5 -2 -5 12 0 14 2 19 5 13 2 -7 2 -19 0 -25z m-2297 -17 c0 -4 -13 -60
-30 -122 -71 -271 -62 -490 35 -784 25 -76 49 -143 53 -149 17 -22 43 -106 39
-123 -3 -13 -10 -5 -24 27 -11 25 -32 70 -46 100 -40 90 -86 244 -108 368 -31
173 -23 380 20 547 17 66 34 126 36 133 5 14 25 17 25 3z m1430 -68 c-29 -109
-81 -211 -136 -268 -43 -44 -64 -55 -64 -35 0 6 4 10 8 10 20 0 151 223 177
300 21 63 32 58 15 -7z m-1707 28 c2 -10 1 -25 -4 -32 -6 -10 -9 -4 -9 19 0
36 5 42 13 13z m2086 -23 c1 -5 -3 -8 -9 -8 -5 0 -10 12 -9 28 0 24 1 25 9 7
5 -11 9 -23 9 -27z m-29 -10 c0 -6 -7 -5 -15 2 -8 7 -15 17 -15 22 0 6 7 5 15
-2 8 -7 15 -17 15 -22z m310 -22 c0 -3 -4 -8 -10 -11 -5 -3 -10 -1 -10 4 0 6
5 11 10 11 6 0 10 -2 10 -4z m-2561 -72 c4 3 13 1 20 -4 11 -6 8 -16 -15 -46
-40 -56 -50 -64 -28 -24 11 19 23 44 27 54 6 15 5 17 -6 8 -8 -7 -17 -9 -20
-5 -4 3 -7 -1 -7 -10 0 -9 -5 -19 -12 -23 -6 -4 -9 -3 -7 2 3 5 11 22 19 37 8
16 16 24 18 18 2 -6 7 -9 11 -7z m45 -39 c-6 -16 -24 -21 -24 -7 0 11 11 22
21 22 5 0 6 -7 3 -15z m41 -67 c-11 -36 -22 -41 -17 -8 2 16 9 30 14 30 5 0 6
-10 3 -22z m2755 -3 c14 -19 14 -19 -2 -6 -10 7 -18 18 -18 24 0 6 1 8 3 6 1
-2 9 -13 17 -24z m-3140 6 c0 -13 -29 -35 -37 -28 -7 8 15 37 28 37 5 0 9 -4
9 -9z m283 -26 c-3 -9 -8 -14 -10 -11 -3 3 -2 9 2 15 9 16 15 13 8 -4z m1065
-47 c39 -26 102 -105 102 -127 0 -23 -18 -9 -51 40 -24 36 -47 57 -77 70 -48
21 -144 25 -186 9 -32 -12 -34 3 -4 24 15 11 43 15 98 13 65 -2 84 -7 118 -29z
m1332 7 c11 -13 5 -15 -46 -15 -101 0 -183 -24 -270 -76 -181 -111 -202 -126
-392 -292 -122 -107 -189 -156 -196 -144 -7 11 3 23 44 53 29 22 92 76 265
227 74 64 227 166 333 221 67 35 240 52 262 26z m65 -5 c4 -6 -5 -10 -20 -10
-15 0 -24 4 -20 10 3 6 12 10 20 10 8 0 17 -4 20 -10z m942 -100 c41 -55 67
-100 59 -100 -5 0 -129 167 -141 190 -13 25 38 -31 82 -90z m-1777 -19 c0 -5
-7 -14 -15 -21 -16 -14 -18 -10 -9 14 6 17 24 22 24 7z m-427 -61 c6 -22 -7
-35 -23 -25 -15 9 -12 45 4 45 7 0 16 -9 19 -20z m1855 -41 c18 -20 38 -52 46
-70 16 -40 40 -192 33 -211 -6 -16 -9 -7 -30 89 -17 73 -67 193 -96 227 -15
17 -15 18 0 10 9 -5 30 -25 47 -45z m-3484 -76 c-4 -49 -17 -124 -29 -168 -13
-44 -26 -96 -31 -115 l-8 -35 -7 45 c-5 30 -1 76 12 140 18 90 57 220 66 220
2 0 1 -39 -3 -87z m3952 -35 c14 -27 27 -69 30 -96 5 -47 5 -47 -21 22 -14 39
-36 93 -50 120 -22 45 -22 48 -4 26 12 -14 32 -46 45 -72z m-248 -48 c28 -17
32 -25 32 -62 -1 -37 -2 -40 -12 -23 -6 11 -24 39 -40 63 -32 47 -28 51 20 22z
m-2959 -62 c13 -29 27 -62 32 -73 51 -126 73 -172 108 -234 22 -40 41 -75 41
-78 0 -3 9 -18 20 -33 17 -24 18 -32 9 -54 -7 -14 -15 -26 -18 -26 -3 1 -24
23 -45 50 -38 49 -59 60 -71 40 -6 -10 39 -104 62 -128 15 -16 17 -32 4 -32
-5 0 -13 9 -16 21 -4 13 -12 18 -22 15 -32 -13 -210 146 -249 222 -11 20 -23
40 -29 44 -15 11 -10 120 8 153 27 52 127 176 137 170 3 -2 16 -28 29 -57z
m1503 -53 c3 -14 0 -44 -7 -68 -80 -271 -99 -325 -134 -377 -66 -96 -235 -191
-366 -204 -65 -7 -222 10 -275 30 -8 3 -28 8 -45 11 -36 6 -46 13 -18 13 24 0
38 26 18 33 -7 3 -42 0 -79 -6 -36 -6 -68 -8 -72 -4 -11 11 17 65 42 82 23 15
24 14 24 -5 0 -11 3 -20 7 -20 6 0 53 21 226 105 79 38 101 44 112 35 8 -7 12
-17 8 -23 -3 -5 -1 -7 5 -3 6 3 13 2 17 -4 8 -13 55 -13 55 1 0 5 5 7 10 4 6
-4 7 -11 4 -17 -4 -7 -2 -8 5 -4 6 4 18 2 26 -4 8 -6 39 -13 70 -15 51 -3 55
-2 50 15 -3 11 0 22 8 27 19 11 51 62 44 69 -3 3 -14 -4 -24 -15 -21 -25 -38
-28 -29 -5 3 8 2 13 -3 10 -4 -3 -9 15 -9 40 -1 24 -3 48 -5 53 -5 19 68 93
116 118 50 25 109 68 172 125 37 34 41 34 47 3z m-2257 -127 c-8 -29 -20 -60
-26 -68 -15 -21 -4 124 12 170 l13 35 8 -42 c7 -30 4 -57 -7 -95z m1876 -81
c-13 -13 -14 9 -3 79 l7 49 3 -59 c2 -32 -2 -64 -7 -69z m-1611 -49 c0 -14
-28 -8 -51 11 -20 16 -22 21 -9 35 12 16 15 15 36 -11 13 -15 23 -31 24 -35z
m1348 15 c-2 -13 -39 -30 -128 -60 -206 -69 -374 -111 -367 -90 1 5 68 27 147
49 80 22 188 57 240 78 112 45 112 45 108 23z m272 -45 c1 -18 7 -50 14 -71
12 -32 12 -36 0 -26 -26 21 -46 129 -24 129 6 0 10 -15 10 -32z m-1945 -22
c-12 -55 -38 -143 -50 -167 -8 -14 -30 -38 -49 -52 -38 -30 -63 -37 -31 -9 31
26 72 116 91 198 13 62 19 73 30 63 8 -6 12 -21 9 -33z m1075 -131 c10 -12 8
-13 -10 -10 -16 3 -20 0 -18 -13 4 -21 104 -35 196 -27 51 5 62 3 62 -10 0 -8
-4 -15 -8 -15 -4 0 -9 -12 -10 -26 -1 -15 -7 -33 -12 -40 -8 -8 -7 -14 2 -17
7 -3 3 -6 -8 -6 -26 -1 -39 -16 -48 -53 -5 -21 -12 -28 -30 -28 -13 0 -29 7
-36 15 -7 8 -30 20 -51 26 -51 16 -65 41 -68 117 -3 92 10 122 39 87z"/>
<path d="M2532 4693 c-15 -16 -17 -19 -4 -8 13 11 46 22 75 26 l52 6 -47 2
c-40 1 -53 -4 -76 -26z"/>
<path d="M2479 4693 c-13 -16 -12 -17 4 -4 9 7 17 15 17 17 0 8 -8 3 -21 -13z"/>
<path d="M2215 4681 c-3 -6 1 -14 10 -18 18 -11 95 -4 95 8 0 5 -13 6 -29 3
-16 -4 -32 -1 -35 5 -9 13 -33 14 -41 2z"/>
<path d="M2818 4653 c7 -3 16 -2 19 1 4 3 -2 6 -13 5 -11 0 -14 -3 -6 -6z"/>
<path d="M1861 4618 c-17 -27 -9 -33 13 -9 10 10 13 21 9 24 -5 3 -15 -3 -22
-15z"/>
<path d="M2030 4617 c-127 -53 -323 -175 -376 -235 -13 -15 -24 -22 -24 -16 0
12 37 64 55 76 6 5 6 8 -2 8 -29 0 -123 -143 -123 -188 0 -7 -4 -10 -10 -7 -5
3 -10 0 -10 -7 0 -7 -12 -31 -26 -52 -100 -147 -161 -263 -193 -371 -12 -38
-33 -91 -46 -116 -26 -49 -88 -254 -83 -271 2 -6 12 18 23 53 10 35 40 114 66
174 26 61 59 146 73 190 14 44 54 130 88 190 33 61 66 119 72 130 19 35 129
168 171 208 90 85 259 189 379 233 34 13 52 23 41 23 -11 0 -45 -10 -75 -22z"/>
<path d="M2243 4613 c-13 -2 -23 -9 -23 -14 0 -6 5 -7 10 -4 20 13 9 -14 -12
-29 -35 -25 -2 -19 37 7 19 12 35 28 35 35 0 12 -6 13 -47 5z"/>
<path d="M2552 4579 c-7 -11 -11 -23 -9 -25 7 -7 29 24 25 36 -2 6 -9 1 -16
-11z"/>
<path d="M3190 4479 c0 -3 23 -29 51 -58 28 -29 46 -44 41 -34 -11 19 -92 101
-92 92z"/>
<path d="M2471 4454 c0 -11 3 -14 6 -6 3 7 2 16 -1 19 -3 4 -6 -2 -5 -13z"/>
<path d="M3270 4453 c0 -5 12 -20 28 -34 l27 -24 -25 30 c-14 17 -26 32 -27
34 -2 2 -3 0 -3 -6z"/>
<path d="M2279 4423 c-13 -15 -12 -15 9 -4 23 12 28 21 13 21 -5 0 -15 -7 -22
-17z"/>
<path d="M2282 4391 c-26 -25 -45 -56 -53 -83 -6 -24 -24 -83 -40 -132 -16
-50 -25 -86 -20 -80 5 5 19 41 31 79 33 101 69 169 124 233 33 37 1 25 -42
-17z"/>
<path d="M2462 4410 c0 -14 2 -19 5 -12 2 6 2 18 0 25 -3 6 -5 1 -5 -13z"/>
<path d="M3486 4402 c5 -4 23 -18 39 -32 l30 -25 -29 33 c-17 17 -34 32 -40
32 -6 0 -6 -3 0 -8z"/>
<path d="M2451 4364 c0 -11 3 -14 6 -6 3 7 2 16 -1 19 -3 4 -6 -2 -5 -13z"/>
<path d="M2551 4334 c0 -11 3 -14 6 -6 3 7 2 16 -1 19 -3 4 -6 -2 -5 -13z"/>
<path d="M1630 4221 c-53 -60 -84 -101 -77 -101 2 0 36 36 76 80 40 44 68 80
63 80 -6 0 -34 -27 -62 -59z"/>
<path d="M1845 4250 c-3 -6 1 -7 9 -4 18 7 21 14 7 14 -6 0 -13 -4 -16 -10z"/>
<path d="M2411 4128 c-17 -46 -25 -295 -16 -461 4 -76 9 -136 11 -134 3 2 5
111 4 241 0 130 5 268 10 307 12 80 8 96 -9 47z"/>
<path d="M1568 4073 c-9 -10 -21 -29 -27 -43 l-12 -25 21 25 c23 27 43 60 37
60 -2 0 -11 -8 -19 -17z"/>
<path d="M2062 3957 c-46 -45 -104 -126 -170 -237 -31 -52 -60 -96 -64 -98 -5
-2 -8 -13 -8 -25 0 -11 -6 -28 -13 -36 -17 -20 -60 -121 -54 -127 2 -3 14 18
26 46 12 28 35 73 51 101 17 27 30 54 30 60 0 25 108 171 170 229 41 38 72 76
76 93 8 36 -4 34 -44 -6z"/>
<path d="M2116 3923 c-16 -80 -18 -103 -8 -103 5 0 13 27 16 61 7 63 2 92 -8
42z"/>
<path d="M4092 3825 c0 -16 2 -22 5 -12 2 9 2 23 0 30 -3 6 -5 -1 -5 -18z"/>
<path d="M2099 3680 c-6 -184 -3 -226 21 -319 19 -74 63 -181 74 -181 3 0 -6
27 -19 60 -42 108 -57 197 -65 385 l-7 180 -4 -125z"/>
<path d="M3480 3708 c0 -7 12 -31 25 -53 29 -46 35 -24 9 31 -16 34 -34 45
-34 22z"/>
<path d="M1327 3673 c-12 -22 -29 -87 -32 -130 -6 -59 -24 -96 -43 -88 -10 3
-12 0 -8 -10 3 -8 2 -15 -3 -15 -18 0 -44 -137 -45 -240 -1 -58 0 -97 2 -87 2
9 7 15 11 12 5 -2 11 18 14 47 7 55 35 138 47 138 19 0 18 -53 -1 -121 -15
-50 -22 -104 -22 -168 0 -82 -2 -91 -14 -75 -13 18 -12 35 4 88 3 12 1 16 -6
12 -6 -4 -11 -14 -11 -22 0 -8 -4 -14 -10 -14 -5 0 -10 9 -10 20 0 11 -5 20
-11 20 -6 0 -8 -7 -5 -16 16 -41 17 -67 6 -94 -14 -33 -33 -41 -28 -12 1 10
-4 29 -13 43 -24 36 -49 118 -49 158 0 70 36 154 88 209 14 16 16 26 3 17 -5
-3 -12 -1 -16 5 -3 5 -1 10 5 10 6 0 8 5 5 10 -3 6 -10 10 -14 10 -10 0 -37
-61 -33 -73 1 -5 -1 -6 -6 -3 -12 7 -49 -74 -57 -125 -10 -77 10 -186 50 -265
32 -62 36 -78 30 -113 -5 -32 -14 -45 -36 -56 -16 -9 -29 -21 -29 -27 0 -6
-13 -32 -29 -57 -16 -25 -32 -59 -36 -76 -6 -27 -4 -26 17 11 44 78 46 80 59
67 10 -10 7 -23 -14 -65 -26 -52 -33 -78 -21 -78 3 0 23 14 44 30 46 37 126
74 144 67 24 -10 -80 -200 -145 -265 -84 -84 -118 -113 -184 -159 -86 -58 -86
-58 -74 -134 5 -35 14 -72 20 -82 14 -25 5 -36 -100 -127 -102 -89 -276 -266
-339 -345 -99 -125 -148 -271 -140 -419 5 -93 29 -149 66 -154 19 -3 22 1 22
28 l0 32 41 -36 c64 -54 76 -81 81 -178 5 -99 44 -198 79 -198 17 0 19 8 18
113 -1 95 12 179 25 166 2 -2 14 -33 26 -69 21 -65 68 -153 116 -220 39 -54
47 -59 28 -15 -31 72 -53 140 -54 163 0 12 -5 22 -11 22 -8 0 -10 -14 -6 -42
l5 -43 -28 58 c-49 100 -57 159 -35 262 l6 30 -19 -22 c-36 -41 -77 -189 -77
-280 0 -63 -3 -79 -12 -70 -29 30 -59 208 -33 192 12 -8 13 5 1 24 -11 17 11
96 40 147 30 54 51 84 58 84 3 0 24 -25 46 -55 35 -48 55 -66 55 -50 0 3 -10
22 -23 43 -38 60 -47 99 -47 202 0 81 4 107 26 161 39 97 60 134 120 215 58
78 62 86 39 78 -8 -4 -12 -10 -9 -15 3 -5 1 -9 -3 -9 -10 0 -113 -141 -136
-186 -40 -77 -61 -160 -62 -236 0 -43 -2 -78 -5 -78 -10 0 -30 81 -30 122 0
29 8 54 27 80 20 29 23 42 15 50 -9 9 -29 -7 -82 -62 -39 -40 -69 -79 -66 -86
3 -7 -4 -23 -14 -36 -25 -30 -26 -8 -4 53 8 24 17 51 19 59 10 44 112 225 150
266 5 6 30 35 55 64 50 60 48 58 144 149 79 75 83 92 5 23 -112 -98 -249 -253
-249 -281 0 -6 -4 -11 -8 -11 -11 0 -95 -161 -129 -246 -24 -62 -27 -82 -27
-196 -1 -123 -2 -127 -18 -105 -17 22 -27 55 -33 103 -1 14 -5 27 -8 30 -9 9
-27 -6 -27 -22 0 -8 -4 -14 -10 -14 -10 0 -15 64 -10 130 6 97 81 241 174 335
33 33 61 66 62 73 4 21 142 157 151 149 4 -5 1 -12 -7 -17 -9 -6 -10 -10 -3
-10 6 0 44 36 84 81 40 44 118 116 173 160 108 86 236 207 236 223 0 5 -28
-17 -63 -50 -35 -32 -74 -68 -88 -79 -13 -11 -41 -35 -62 -52 -44 -38 -70 -44
-41 -10 30 33 145 211 192 297 22 42 53 86 67 100 l26 24 -22 -49 c-12 -28
-38 -74 -57 -103 -19 -29 -33 -54 -30 -57 8 -9 75 98 117 187 53 114 120 317
127 387 5 39 3 53 -4 46 -6 -5 -12 -21 -14 -35 -1 -14 -7 -23 -13 -20 -12 6
-10 25 11 97 14 49 17 53 32 40 34 -29 43 -6 11 26 l-32 31 -19 -24 c-61 -78
-64 -78 -37 10 11 35 18 71 17 80 -2 8 -12 -13 -21 -48 -34 -118 -49 -42 -23
116 7 45 16 85 19 88 3 3 14 -14 25 -38 16 -33 21 -38 21 -20 1 13 -5 35 -13
51 -34 65 -30 338 6 434 10 25 6 49 -5 30z m-38 -295 c0 -42 -2 -48 -9 -30 -5
12 -12 22 -16 22 -3 0 -4 -7 0 -15 3 -8 -8 -41 -24 -72 -34 -67 -36 -60 -14
38 12 52 20 69 30 65 10 -4 14 2 14 19 0 14 5 25 10 25 6 0 10 -24 9 -52z
m-55 -494 c-4 -17 0 -22 20 -26 16 -3 26 -1 26 7 0 6 11 22 24 34 l24 23 -15
-68 c-8 -38 -16 -70 -17 -71 0 0 -27 -4 -58 -8 -54 -7 -58 -6 -58 13 0 28 23
45 40 29 7 -6 1 5 -13 27 -25 38 -25 58 0 99 9 15 32 -35 27 -59z m80 -221
c-14 -60 -67 -182 -81 -187 -10 -4 -13 -2 -10 6 42 97 76 176 80 191 10 27 18
20 11 -10z m-38 -12 c-3 -5 -16 -11 -28 -14 -22 -6 -22 -5 -4 8 22 17 40 20
32 6z m-136 -49 c0 -4 -9 -13 -20 -20 -22 -13 -23 -12 -14 12 6 16 34 23 34 8z
m-116 -386 c-3 -9 -10 -16 -15 -16 -5 0 -4 9 3 20 14 22 21 20 12 -4z m-122
-198 c-7 -7 -12 -8 -12 -2 0 14 12 26 19 19 2 -3 -1 -11 -7 -17z m-149 -214
c-14 -14 -27 -23 -29 -21 -5 5 35 47 46 47 5 0 -2 -12 -17 -26z m-189 -574 c3
-22 10 -40 15 -40 4 0 15 -17 23 -38 15 -38 15 -39 -23 -102 -22 -35 -47 -86
-58 -114 l-18 -50 -16 35 c-22 49 -37 108 -37 152 0 50 75 196 101 197 4 0 9
-18 13 -40z m-216 -222 c-3 -32 -3 -33 -16 -10 -7 12 -15 46 -18 75 l-6 52 22
-42 c13 -25 20 -55 18 -75z"/>
<path d="M2082 3605 c0 -16 2 -22 5 -12 2 9 2 23 0 30 -3 6 -5 -1 -5 -18z"/>
<path d="M3919 3594 c-3 -30 4 -90 12 -98 5 -6 6 13 2 45 -5 51 -12 74 -14 53z"/>
<path d="M1718 3556 c-20 -42 -22 -56 -8 -56 6 0 10 8 10 18 0 10 5 23 11 29
6 6 9 19 7 28 -2 13 -8 7 -20 -19z"/>
<path d="M3624 3574 c4 -10 10 -32 13 -49 8 -47 24 -85 34 -79 5 3 3 17 -5 32
-8 15 -17 44 -21 65 -4 20 -12 40 -18 44 -7 4 -8 0 -3 -13z"/>
<path d="M2412 3480 c0 -19 2 -27 5 -17 2 9 2 25 0 35 -3 9 -5 1 -5 -18z"/>
<path d="M4002 3490 c0 -14 2 -19 5 -12 2 6 2 18 0 25 -3 6 -5 1 -5 -13z"/>
<path d="M3903 3409 c-13 -49 -12 -52 11 -43 17 6 19 22 7 63 -5 20 -8 18 -18
-20z"/>
<path d="M3115 3420 c3 -5 11 -10 16 -10 6 0 7 5 4 10 -3 6 -11 10 -16 10 -6
0 -7 -4 -4 -10z"/>
<path d="M1331 3394 c0 -11 3 -14 6 -6 3 7 2 16 -1 19 -3 4 -6 -2 -5 -13z"/>
<path d="M3155 3400 c3 -5 8 -10 11 -10 2 0 4 5 4 10 0 6 -5 10 -11 10 -5 0
-7 -4 -4 -10z"/>
<path d="M3582 3358 c15 -45 31 -61 23 -23 -11 48 -14 55 -24 55 -6 0 -6 -12
1 -32z"/>
<path d="M2193 3345 c0 -22 2 -30 4 -17 2 12 2 30 0 40 -3 9 -5 -1 -4 -23z"/>
<path d="M3243 3345 c20 -14 37 -32 37 -40 0 -8 6 -15 14 -15 11 0 12 5 3 24
-7 14 -14 23 -16 21 -2 -3 -15 5 -29 15 -13 11 -30 20 -36 20 -6 0 6 -11 27
-25z"/>
<path d="M3640 3356 c0 -3 17 -10 38 -16 20 -6 51 -18 67 -25 17 -8 56 -21 88
-30 68 -18 71 -36 9 -49 -46 -11 -59 -32 -14 -23 15 2 35 2 44 -2 47 -17 -47
-93 -118 -95 -41 -2 -56 -15 -26 -23 14 -3 22 -13 22 -26 0 -20 68 -152 75
-145 2 2 -9 30 -25 63 -40 81 -39 110 1 124 18 6 44 10 58 10 17 -1 20 -3 9
-6 -10 -2 -18 -11 -18 -19 0 -8 -7 -29 -16 -47 l-17 -32 23 20 c31 28 80 115
80 144 0 24 0 24 -16 5 -14 -18 -15 -18 -8 6 3 14 13 32 20 41 8 8 14 21 14
29 0 7 10 28 22 48 14 23 17 33 8 30 -8 -2 -21 -19 -29 -36 -19 -38 -30 -39
-65 -7 -27 25 -37 29 -66 26 -9 -1 -44 8 -79 19 -64 20 -81 24 -81 16z"/>
<path d="M1331 3334 c0 -11 3 -14 6 -6 3 7 2 16 -1 19 -3 4 -6 -2 -5 -13z"/>
<path d="M1705 3330 c3 -5 11 -10 16 -10 6 0 7 5 4 10 -3 6 -11 10 -16 10 -6
0 -7 -4 -4 -10z"/>
<path d="M4022 3280 c0 -14 2 -19 5 -12 2 6 2 18 0 25 -3 6 -5 1 -5 -13z"/>
<path d="M1676 3268 c-3 -13 -6 -35 -6 -50 0 -15 -6 -33 -13 -40 -9 -9 -12
-37 -10 -87 3 -87 13 -109 13 -30 l1 54 44 -80 45 -80 -7 50 c-13 97 -13 97
46 128 87 43 88 43 83 -68 -5 -116 17 -195 54 -195 29 0 39 -16 23 -36 -15
-19 -10 -23 37 -31 l38 -6 -21 29 c-31 43 -40 99 -18 108 10 3 24 1 31 -5 10
-8 18 -8 27 0 20 16 45 -6 62 -54 8 -22 14 -35 15 -28 0 7 7 10 15 6 9 -3 15
-2 13 3 -1 5 2 20 6 32 7 20 2 30 -28 57 -39 36 -43 47 -22 64 17 14 61 0 69
-23 4 -9 10 -16 15 -16 17 0 -7 93 -30 119 -105 120 -193 178 -279 182 -24 1
-55 6 -69 11 -22 7 -23 7 -7 -6 9 -7 17 -18 17 -25 0 -6 9 -11 19 -11 11 0 22
-4 25 -8 3 -5 -14 -8 -37 -7 -44 1 -85 -14 -106 -39 -7 -8 -19 -12 -28 -9 -12
5 -14 16 -8 59 7 55 2 72 -9 32z m197 -95 c-7 -2 -21 -2 -30 0 -10 3 -4 5 12
5 17 0 24 -2 18 -5z m217 -203 c0 -5 -2 -10 -4 -10 -3 0 -8 5 -11 10 -3 6 -1
10 4 10 6 0 11 -4 11 -10z"/>
<path d="M2201 3269 c-2 -52 27 -105 85 -163 33 -32 71 -64 87 -72 26 -14 27
-14 27 10 0 16 -8 30 -22 37 -34 18 -59 52 -45 61 9 6 9 8 1 8 -6 0 -18 14
-26 31 -12 23 -17 27 -21 15 -4 -10 12 -40 43 -81 27 -36 44 -65 39 -65 -6 0
-38 28 -70 61 -46 48 -63 75 -78 123 -13 40 -20 52 -20 35z"/>
<path d="M2456 3274 c6 -3 8 -21 4 -47 -7 -51 9 -87 53 -122 27 -21 29 -27 17
-35 -8 -5 -23 -10 -32 -10 -24 0 -110 42 -125 60 -6 8 -14 12 -18 9 -6 -7 61
-63 103 -87 27 -15 72 -6 90 20 7 10 18 16 23 13 5 -4 9 -1 9 4 0 6 -7 11 -15
11 -20 0 -82 57 -72 66 9 9 28 -1 102 -54 26 -19 52 -35 59 -36 7 -1 25 -9 39
-19 15 -9 33 -17 41 -17 22 0 30 -19 12 -26 -9 -3 -16 -14 -16 -24 0 -10 -6
-23 -14 -29 -15 -12 -28 -61 -16 -61 3 0 19 14 35 30 37 39 49 38 41 -4 -10
-50 3 -118 21 -112 22 9 26 -20 7 -53 -10 -17 -16 -32 -13 -35 2 -2 30 -7 62
-11 69 -9 77 7 12 25 -25 7 -45 14 -45 15 0 2 9 21 21 42 25 47 55 69 73 54 7
-6 16 -8 19 -4 4 3 7 2 7 -4 0 -6 9 -9 20 -6 14 4 27 -2 40 -17 24 -28 25 -34
5 -50 -16 -14 -20 -40 -6 -40 5 0 14 7 21 15 7 8 26 15 42 15 23 0 32 6 43 33
23 54 30 109 14 106 -8 -1 -29 2 -47 6 -28 7 -33 12 -30 34 3 22 9 27 43 31
32 5 47 1 75 -19 33 -24 76 -69 92 -96 18 -30 -60 -211 -124 -289 -19 -24 -56
-50 -92 -67 -34 -15 -52 -28 -41 -28 32 -1 98 34 126 65 73 82 149 223 149
278 0 13 7 39 15 57 l16 34 -4 -32 c-3 -32 5 -43 18 -23 10 17 14 90 5 90 -5
0 -11 -8 -13 -17 -2 -10 -4 47 -4 127 0 146 -9 242 -22 221 -4 -6 -4 -44 1
-83 10 -98 6 -108 -45 -110 -84 -4 -112 1 -131 24 -10 13 -22 23 -26 23 -12 0
-44 44 -73 100 -14 28 -26 45 -27 39 0 -6 16 -41 35 -77 19 -36 35 -68 35 -72
0 -14 -140 83 -182 127 -26 26 -51 48 -57 48 -18 0 40 -98 85 -144 l44 -44
-57 -17 c-32 -9 -63 -21 -68 -25 -22 -18 -59 -4 -98 35 -33 33 -39 36 -34 18
4 -18 1 -23 -15 -23 -10 0 -17 4 -13 9 3 5 0 13 -6 17 -8 5 -9 3 -4 -6 13 -21
-13 -7 -66 35 -30 25 -58 60 -74 93 -17 34 -32 52 -43 51 -9 0 -12 -3 -6 -5z
m542 -175 c2 -5 -5 -9 -16 -9 -17 0 -122 99 -122 115 0 8 134 -95 138 -106z
m286 -55 c8 -20 -3 -84 -14 -84 -8 0 -70 73 -70 83 0 3 8 8 18 10 36 10 60 6
66 -9z"/>
<path d="M3611 3264 c0 -11 3 -14 6 -6 3 7 2 16 -1 19 -3 4 -6 -2 -5 -13z"/>
<path d="M1397 3263 c-4 -3 -6 -45 -5 -92 l1 -86 7 90 c7 96 7 99 -3 88z"/>
<path d="M1150 3169 c0 -35 5 -71 10 -79 6 -10 7 11 3 60 -7 94 -13 103 -13
19z"/>
<path d="M3571 3214 c0 -11 3 -14 6 -6 3 7 2 16 -1 19 -3 4 -6 -2 -5 -13z"/>
<path d="M3621 3214 c0 -11 3 -14 6 -6 3 7 2 16 -1 19 -3 4 -6 -2 -5 -13z"/>
<path d="M4011 3214 c0 -11 3 -14 6 -6 3 7 2 16 -1 19 -3 4 -6 -2 -5 -13z"/>
<path d="M3631 3164 c0 -11 3 -14 6 -6 3 7 2 16 -1 19 -3 4 -6 -2 -5 -13z"/>
<path d="M2650 3156 c0 -8 4 -17 9 -20 5 -4 7 3 4 14 -6 23 -13 26 -13 6z"/>
<path d="M2230 3121 c0 -5 5 -13 10 -16 6 -3 10 -2 10 4 0 5 -4 13 -10 16 -5
3 -10 2 -10 -4z"/>
<path d="M1212 3060 c0 -14 2 -19 5 -12 2 6 2 18 0 25 -3 6 -5 1 -5 -13z"/>
<path d="M1402 3030 c0 -19 2 -27 5 -17 2 9 2 25 0 35 -3 9 -5 1 -5 -18z"/>
<path d="M3622 3014 c-3 -56 -54 -183 -88 -222 -8 -9 -29 -35 -46 -57 l-30
-40 6 35 c4 25 0 20 -14 -20 -11 -30 -18 -59 -16 -65 2 -5 5 -3 5 6 1 17 44
62 53 54 6 -7 100 159 122 216 10 26 16 62 13 85 -3 33 -4 34 -5 8z"/>
<path d="M1662 2985 c0 -11 3 -29 8 -40 11 -25 11 1 0 35 -6 20 -8 21 -8 5z"/>
<path d="M3500 2961 c0 -21 -2 -54 -5 -72 -3 -22 0 -16 10 16 17 58 19 95 5
95 -5 0 -10 -17 -10 -39z"/>
<path d="M4080 2925 c-8 -9 -8 -15 -2 -15 12 0 26 19 19 26 -2 2 -10 -2 -17
-11z"/>
<path d="M1681 2915 c0 -5 8 -26 19 -45 11 -19 19 -30 19 -25 0 6 -8 26 -19
45 -11 19 -19 31 -19 25z"/>
<path d="M3335 2901 c-6 -11 9 -23 19 -14 9 9 7 23 -3 23 -6 0 -12 -4 -16 -9z"/>
<path d="M3722 2870 c0 -19 2 -27 5 -17 2 9 2 25 0 35 -3 9 -5 1 -5 -18z"/>
<path d="M3653 2883 c-7 -3 -15 -19 -17 -36 -9 -59 -15 -179 -9 -173 3 3 9 45
13 92 4 52 12 89 20 94 15 9 10 29 -7 23z"/>
<path d="M3481 2834 c0 -11 3 -14 6 -6 3 7 2 16 -1 19 -3 4 -6 -2 -5 -13z"/>
<path d="M1420 2839 c-4 -137 -3 -246 3 -240 9 9 12 230 3 238 -3 4 -6 4 -6 2z"/>
<path d="M3663 2785 c0 -27 2 -38 4 -22 2 15 2 37 0 50 -2 12 -4 0 -4 -28z"/>
<path d="M1730 2804 c0 -20 51 -84 67 -84 16 0 16 1 0 13 -9 6 -28 27 -42 46
-14 19 -25 31 -25 25z"/>
<path d="M2085 2800 c4 -6 11 -8 16 -5 14 9 11 15 -7 15 -8 0 -12 -5 -9 -10z"/>
<path d="M3597 2793 c-11 -10 -8 -93 3 -93 6 0 10 23 10 50 0 51 -1 55 -13 43z"/>
<path d="M3712 2750 c0 -14 2 -19 5 -12 2 6 2 18 0 25 -3 6 -5 1 -5 -13z"/>
<path d="M3020 2716 c-7 -9 -25 -16 -41 -16 -38 0 -37 -19 1 -26 16 -4 31 -7
32 -8 2 0 14 7 28 17 22 15 23 18 9 32 -14 14 -17 15 -29 1z"/>
<path d="M3652 2695 c0 -16 2 -22 5 -12 2 9 2 23 0 30 -3 6 -5 -1 -5 -18z"/>
<path d="M1463 2655 c0 -27 2 -38 4 -22 2 15 2 37 0 50 -2 12 -4 0 -4 -28z"/>
<path d="M3289 2563 l-34 -38 38 34 c20 19 37 36 37 38 0 8 -8 0 -41 -34z"/>
<path d="M3511 2581 c-14 -26 -48 -188 -55 -266 l-5 -60 14 70 c7 39 25 114
40 169 25 97 27 128 6 87z"/>
<path d="M3393 2553 c-68 -68 -90 -81 -49 -30 21 26 34 47 28 47 -5 0 -12 -6
-15 -12 -3 -7 -30 -28 -61 -47 -41 -24 -59 -31 -69 -23 -15 13 -60 8 -112 -11
-40 -16 -40 -16 50 -11 187 9 170 5 227 61 29 29 49 55 46 58 -4 4 -24 -11
-45 -32z"/>
<path d="M1412 2550 c0 -19 2 -27 5 -17 2 9 2 25 0 35 -3 9 -5 1 -5 -18z"/>
<path d="M1473 2450 c-7 -69 -15 -136 -18 -150 -5 -23 -5 -23 4 -3 12 27 34
210 29 249 -1 16 -9 -27 -15 -96z"/>
<path d="M4012 2540 c0 -14 2 -19 5 -12 2 6 2 18 0 25 -3 6 -5 1 -5 -13z"/>
<path d="M3409 2488 c-7 -13 -19 -28 -28 -35 -10 -8 -12 -12 -4 -13 16 0 12
-9 -77 -195 -88 -183 -121 -257 -117 -261 2 -2 45 83 96 189 52 106 109 222
127 259 19 37 34 69 34 72 0 15 -21 4 -31 -16z"/>
<path d="M3643 2400 c0 -25 2 -35 4 -22 2 12 2 32 0 45 -2 12 -4 2 -4 -23z"/>
<path d="M3743 2325 c0 -27 2 -38 4 -22 2 15 2 37 0 50 -2 12 -4 0 -4 -28z"/>
<path d="M3653 2305 c0 -22 2 -30 4 -17 2 12 2 30 0 40 -3 9 -5 -1 -4 -23z"/>
<path d="M1392 2290 c0 -14 2 -19 5 -12 2 6 2 18 0 25 -3 6 -5 1 -5 -13z"/>
<path d="M2408 2289 c13 -5 26 -18 29 -29 5 -19 23 -29 23 -12 0 20 -33 52
-53 51 -22 0 -22 0 1 -10z"/>
<path d="M3752 2245 c0 -31 25 -142 26 -115 1 8 -5 44 -13 80 -7 36 -13 52
-13 35z"/>
<path d="M3663 2220 c0 -25 2 -35 4 -22 2 12 2 32 0 45 -2 12 -4 2 -4 -23z"/>
<path d="M1305 2198 c-22 -28 -51 -63 -65 -78 -14 -15 -36 -41 -50 -58 -14
-17 -49 -58 -78 -91 -30 -34 -51 -61 -48 -61 7 0 67 63 163 172 47 53 126 159
122 162 -2 2 -22 -19 -44 -46z"/>
<path d="M1375 2195 c-3 -31 -5 -59 -2 -61 3 -3 8 20 12 51 3 31 5 59 2 61 -3
3 -8 -20 -12 -51z"/>
<path d="M3442 2230 c0 -14 2 -19 5 -12 2 6 2 18 0 25 -3 6 -5 1 -5 -13z"/>
<path d="M3461 2174 c0 -11 3 -14 6 -6 3 7 2 16 -1 19 -3 4 -6 -2 -5 -13z"/>
<path d="M4196 2147 c3 -10 9 -15 12 -12 3 3 0 11 -7 18 -10 9 -11 8 -5 -6z"/>
<path d="M3444 2100 c-7 -30 -10 -57 -9 -59 6 -6 26 80 23 97 -2 9 -8 -8 -14
-38z"/>
<path d="M3791 2070 c-1 -19 41 -162 46 -157 2 3 -8 42 -21 88 -14 46 -25 77
-25 69z"/>
<path d="M3641 2054 c0 -11 3 -14 6 -6 3 7 2 16 -1 19 -3 4 -6 -2 -5 -13z"/>
<path d="M4250 2043 c0 -25 178 -318 188 -309 2 3 -4 17 -14 32 -34 48 -103
159 -104 165 0 13 -70 123 -70 112z"/>
<path d="M1660 2020 c-6 -11 -8 -20 -6 -20 3 0 10 9 16 20 6 11 8 20 6 20 -3
0 -10 -9 -16 -20z"/>
<path d="M3422 2010 c0 -14 2 -19 5 -12 2 6 2 18 0 25 -3 6 -5 1 -5 -13z"/>
<path d="M4341 1990 c14 -31 19 -36 19 -24 0 6 -7 19 -16 30 -14 18 -14 18 -3
-6z"/>
<path d="M3343 1953 c-25 -72 -84 -198 -129 -275 -30 -50 -52 -93 -49 -96 6
-6 0 -15 63 89 62 103 100 183 117 250 13 47 11 69 -2 32z"/>
<path d="M3901 1904 c0 -11 3 -14 6 -6 3 7 2 16 -1 19 -3 4 -6 -2 -5 -13z"/>
<path d="M3850 1881 c0 -6 4 -13 10 -16 6 -3 7 1 4 9 -7 18 -14 21 -14 7z"/>
<path d="M3086 1793 c-6 -14 -5 -15 5 -6 7 7 10 15 7 18 -3 3 -9 -2 -12 -12z"/>
<path d="M1415 1779 c-4 -6 -5 -12 -2 -15 2 -3 7 2 10 11 7 17 1 20 -8 4z"/>
<path d="M1386 1725 c-9 -26 -7 -32 5 -12 6 10 9 21 6 23 -2 3 -7 -2 -11 -11z"/>
<path d="M3020 1659 c-7 -11 -10 -23 -7 -25 2 -2 9 7 15 21 14 30 7 33 -8 4z"/>
<path d="M575 1630 c-3 -5 -2 -10 4 -10 5 0 13 5 16 10 3 6 2 10 -4 10 -5 0
-13 -4 -16 -10z"/>
<path d="M2898 1559 c-15 -21 -26 -39 -23 -39 7 0 58 70 54 74 -2 2 -16 -14
-31 -35z"/>
<path d="M2977 1573 c-4 -3 -7 -11 -7 -17 0 -6 5 -5 12 2 6 6 9 14 7 17 -3 3
-9 2 -12 -2z"/>
<path d="M3101 1483 c-10 -26 -10 -27 4 -9 8 11 15 23 15 28 0 15 -7 8 -19
-19z"/>
<path d="M3067 1421 c-9 -16 -17 -33 -17 -38 0 -4 9 7 21 26 11 18 18 35 17
37 -2 2 -12 -10 -21 -25z"/>
<path d="M1000 1375 c-20 -24 -6 -28 15 -5 10 11 13 20 8 20 -6 0 -16 -7 -23
-15z"/>
<path d="M2816 1158 l-18 -33 21 25 c18 22 26 40 18 40 -1 0 -11 -15 -21 -32z"/>
<path d="M2154 168 c3 -24 8 -66 12 -94 7 -54 18 -83 29 -72 7 7 -11 166 -21
193 -13 32 -26 14 -20 -27z"/>
</g>
</svg>
